<svg xmlns="http://www.w3.org/2000/svg" viewBox="0 0 448 512" fill="currentColor">
  <path d="M224,202.7A53.3,53.3,0,1,0,277.3,256,53.38,53.38,0,0,0,224,202.7Zm124.7-41a54,54,0,0,0-30.5-30.5C293,124.4,224,124.4,224,124.4s-69,0-94.2,6.8a54,54,0,0,0-30.5,30.5C93,155.6,93,224,93,224s0,69,6.8,94.2a54,54,0,0,0,30.5,30.5C155,323.6,224,323.6,224,323.6s69,0,94.2-6.8a54,54,0,0,0,30.5-30.5C355,293,355,224,355,224S355,155.6,348.7,161.7ZM224,297.4A73.4,73.4,0,1,1,297.4,224,73.43,73.43,0,0,1,224,297.4ZM314.7,168.1a17.2,17.2,0,1,1,17.2-17.2A17.19,17.19,0,0,1,314.7,168.1ZM398.8,80A48,48,0,0,1,432,113.2V398.8A48,48,0,0,1,398.8,432H113.2A48,48,0,0,1,80,398.8V113.2A48,48,0,0,1,113.2,80H398.8m0-48H113.2A96,96,0,0,0,17.6,113.2V398.8A96,96,0,0,0,113.2,494.4H398.8A96,96,0,0,0,494.4,398.8V113.2A96,96,0,0,0,398.8,32Z"></path>
</svg>
