<svg xmlns="http://www.w3.org/2000/svg" viewBox="0 0 448 512" fill="currentColor">
  <path d="M380.9 97.1C339-24 109-23.5 69.5 97.4 33.7 204 113 303 222 319.3v38.8l-46.1-11.5L148 402l9.8-64.3-60.5-38.4c-14.8-9.4-25.8-24.5-29.8-41.9-9-38.2 7.1-77.9 38.3-106.5C135.5 113 186.3 96.6 232.4 112.4c34.1 11.7 62.1 39.6 73.8 73.8 15.9 46.1-.5 96.9-35.5 132.8-28.6 28.6-69.2 44.3-109.2 44.3a134.3 134.3 0 01-34.5-4.5c-.8 0-1.5.2-2.2.5L93.1 397c4.3-27.7 6.4-55.9 6.4-84.3 0-35.2-10.4-69.7-29.7-98.9-19.2-29.3-45.3-53.1-77.6-70.8C1.6 137.3 0 140.7 0 144.3V368c0 5.7 3.6 10.9 9 12.8l75.5 24.2a12.89 12.89 0 0013.5-3.1l49.5-49.5C167.3 381.4 210.6 416 264.4 416c88.4 0 160.2-71.8 160.2-160.2 0-41.8-15.8-80.8-43.7-110.7z"></path>
</svg>
